<?xml version="1.0" standalone="no"?><!DOCTYPE svg PUBLIC "-//W3C//DTD SVG 1.1//EN" "http://www.w3.org/Graphics/SVG/1.1/DTD/svg11.dtd"><svg t="1618364714841" class="icon" viewBox="0 0 1139 1024" version="1.1" xmlns="http://www.w3.org/2000/svg" p-id="9673" data-darkreader-inline-fill="" xmlns:xlink="http://www.w3.org/1999/xlink" width="222.4609375" height="200"><defs><style type="text/css">:not(pre) { -webkit-text-stroke: 0.1px !important; }
[data-darkreader-inline-fill] { fill: var(--darkreader-inline-fill)  !important; }
</style></defs><path d="M1087.53513 543.143813l-410.987113 12.329613a102.11449 102.11449 0 0 0-88.836445 58.802772L423.316727 948.440335a50.899173 50.899173 0 0 0 44.892438 75.5584l410.987113-12.329613a104.643642 104.643642 0 0 0 89.152589-58.802772L1131.795281 619.650645a51.531461 51.531461 0 0 0-44.892439-76.190688zM505.830293 471.062996L263.031752 138.795723a51.531461 51.531461 0 0 0-87.571869 10.432749L11.065038 484.657185a102.746778 102.746778 0 0 0 8.219742 106.224362L261.767177 923.148821a51.847605 51.847605 0 0 0 87.888013-11.065038l164.078701-334.796425A102.746778 102.746778 0 0 0 505.830293 471.062996z m590.240723-20.865499a39.201848 39.201848 0 0 0 38.253416-23.710795 38.885704 38.885704 0 0 0-4.742159-44.892439L879.512422 49.326989a117.921687 117.921687 0 0 0-44.260151-36.040408A118.553975 118.553975 0 0 0 779.294795 0.008536L363.881667 5.382983a39.517992 39.517992 0 0 0-37.937272 23.710795 40.15028 40.15028 0 0 0 4.109871 45.524726l250.069851 331.634986a129.619013 129.619013 0 0 0 100.217627 49.318454z" p-id="9674" fill="#d81e06" data-darkreader-inline-fill="" style="--darkreader-inline-fill:#d01d06;"></path></svg>